<?xml version="1.0" encoding="UTF-8"?>
<svg version="1.1" xmlns="http://www.w3.org/2000/svg" width="500" height="500">
<path d="M0 0 C165 0 330 0 500 0 C500 165 500 330 500 500 C335 500 170 500 0 500 C0 335 0 170 0 0 Z " fill="#FDFDFD" transform="translate(0,0)"/>
<path d="M0 0 C165 0 330 0 500 0 C500 165 500 330 500 500 C335 500 170 500 0 500 C0 335 0 170 0 0 Z M204 13 C202.85225098 13.21350098 201.70450195 13.42700195 200.52197266 13.64697266 C178.25501209 18.10754187 156.93245387 26.16103187 137 37 C136.35981934 37.33821777 135.71963867 37.67643555 135.06005859 38.02490234 C119.02971462 46.49532506 104.50897556 56.9302582 91 69 C90.22100342 69.69440186 90.22100342 69.69440186 89.42626953 70.40283203 C85.90579565 73.55525142 82.44189623 76.76199607 79 80 C78.22011719 80.72574219 77.44023438 81.45148438 76.63671875 82.19921875 C70.01723319 88.5600388 64.52106424 95.69506087 59 103 C58.53271484 103.61182129 58.06542969 104.22364258 57.58398438 104.85400391 C47.03895281 118.69162312 38.35961187 133.23981277 31 149 C30.63374512 149.78084961 30.26749023 150.56169922 29.89013672 151.36621094 C15.29142055 182.88149321 9.5641931 214.9713346 9.625 249.5 C9.62521149 250.60772766 9.62542297 251.71545532 9.62564087 252.85675049 C9.65635077 268.95834506 10.28891665 284.2735492 14 300 C14.34504231 301.667434 14.68750593 303.33540375 15.02734375 305.00390625 C26.3423345 357.53631298 59.8588338 409.2087755 103.34375 440.796875 C105.03403891 442.02472638 106.70459469 443.27652159 108.375 444.53125 C136.75771277 465.59252681 170.97209025 481.15204687 205.96728516 486.66015625 C208.03607323 487.00603098 210.08265159 487.41965987 212.13671875 487.84375 C235.3063603 492.31553161 261.74256928 491.74165771 285 488 C285.90911133 487.85997559 286.81822266 487.71995117 287.75488281 487.57568359 C315.08056132 483.20593461 340.56371408 473.84215672 365 461 C365.72622559 460.62101562 366.45245117 460.24203125 367.20068359 459.8515625 C385.75758078 450.05035197 402.27015787 436.44425546 417.5625 422.1875 C418.20493652 421.58977783 418.84737305 420.99205566 419.50927734 420.3762207 C423.96674169 416.15449324 428.03936296 411.68842387 432 407 C432.48847412 406.42306396 432.97694824 405.84612793 433.48022461 405.25170898 C451.16316201 384.11260295 465.04180547 360.69023226 475 335 C475.27150879 334.31969727 475.54301758 333.63939453 475.82275391 332.93847656 C482.84021656 315.24528166 487.3103534 295.95254202 489 277 C489.0839502 276.09386963 489.16790039 275.18773926 489.25439453 274.25415039 C490.00455666 265.52529612 490.24253396 256.81902873 490.25 248.0625 C490.25067474 247.34145081 490.25134949 246.62040161 490.25204468 245.87750244 C490.23359322 233.37293024 489.32719047 221.29690216 487 209 C486.83902832 208.10265137 486.67805664 207.20530273 486.51220703 206.28076172 C480.8652843 175.34473834 469.45317887 145.24692311 452 119 C451.32783447 117.98848877 451.32783447 117.98848877 450.64208984 116.95654297 C435.28625494 94.09687538 416.33235654 73.21351642 394 57 C393.0615625 56.28972656 392.123125 55.57945313 391.15625 54.84765625 C371.92537635 40.45213158 350.57067293 30.00601509 328 22 C327.0826709 21.67370605 326.1653418 21.34741211 325.22021484 21.01123047 C300.00877663 12.24496493 275.39784881 9.54185301 248.875 9.5 C247.24999573 9.49312668 247.24999573 9.49312668 245.59216309 9.4861145 C231.46807795 9.46243612 217.88486211 10.37868473 204 13 Z " fill="#FEFEFE" transform="translate(0,0)"/>
<path d="M0 0 C1.03964905 -0.01266403 2.0792981 -0.02532806 3.15045166 -0.03837585 C62.57988536 -0.62132629 117.04914248 13.69606863 164.1171875 51.2734375 C165.10976563 52.05847656 166.10234375 52.84351563 167.125 53.65234375 C182.38127093 66.11878509 196.59403748 80.26906248 208.1171875 96.2734375 C208.75398438 97.13839844 209.39078125 98.00335938 210.046875 98.89453125 C211.7938372 101.32086764 213.46956131 103.77868275 215.1171875 106.2734375 C215.705 107.16289063 216.2928125 108.05234375 216.8984375 108.96875 C227.7911111 126.06667618 236.51176514 144.12490985 243.1171875 163.2734375 C243.36017578 163.9535791 243.60316406 164.6337207 243.85351562 165.33447266 C248.34950684 177.97384397 250.78671709 191.09072817 253.1171875 204.2734375 C253.32069824 205.3874292 253.32069824 205.3874292 253.52832031 206.52392578 C257.38322667 228.45345645 256.38287701 253.34955916 253.1171875 275.2734375 C252.9718457 276.25231934 252.82650391 277.23120117 252.67675781 278.23974609 C245.54707784 323.9849682 225.00201088 365.96029878 194.1171875 400.2734375 C193.35873535 401.12446045 193.35873535 401.12446045 192.58496094 401.99267578 C186.14041534 409.20852096 179.53274927 416.03545421 172.1171875 422.2734375 C171.32368896 422.94342773 171.32368896 422.94342773 170.51416016 423.62695312 C147.03732486 443.3141943 120.2671481 458.67482172 91.1171875 468.2734375 C90.18374512 468.58361816 89.25030273 468.89379883 88.28857422 469.21337891 C30.72087232 487.99903359 -35.01484972 484.46761416 -89.3828125 457.2734375 C-91.90045171 455.97161024 -94.39325189 454.62801314 -96.8828125 453.2734375 C-97.85541016 452.75595947 -97.85541016 452.75595947 -98.84765625 452.22802734 C-113.82148837 444.24855102 -127.57666594 434.91648989 -140.29418945 423.67358398 C-141.4374884 422.6659277 -142.58796292 421.66639174 -143.74291992 420.67211914 C-155.81095711 410.25193825 -167.15364812 398.96981017 -176.56591797 386.07324219 C-177.94437748 384.18929641 -179.35284121 382.33002803 -180.76171875 380.46875 C-197.38501582 358.12634122 -209.60745522 332.14183617 -216.8828125 305.2734375 C-217.36621094 303.67628906 -217.36621094 303.67628906 -217.859375 302.046875 C-218.99284937 298.14460828 -219.96319099 294.23041271 -220.8828125 290.2734375 C-221.06908203 289.51401855 -221.25535156 288.75459961 -221.44726562 287.97216797 C-225.17252588 272.1145559 -225.28517897 256.22609776 -225.3203125 240.0234375 C-225.32639526 238.96015228 -225.33247803 237.89686707 -225.33874512 236.80136108 C-225.4088783 218.02681647 -223.66839636 199.90154917 -219.1328125 181.6484375 C-218.87604736 180.60341064 -218.61928223 179.55838379 -218.35473633 178.48168945 C-215.89243024 168.78575755 -212.72550052 159.50325243 -208.8828125 150.2734375 C-208.54910645 149.46600098 -208.21540039 148.65856445 -207.87158203 147.82666016 C-192.50778534 111.1182881 -168.05376569 78.0856941 -136.8828125 53.2734375 C-136.09261719 52.61601563 -135.30242187 51.95859375 -134.48828125 51.28125 C-122.58510504 41.45076616 -109.45979934 33.54885515 -95.8828125 26.2734375 C-95.26390137 25.93602539 -94.64499023 25.59861328 -94.00732422 25.25097656 C-76.72247127 15.88434993 -58.16149995 9.07511056 -38.8828125 5.2734375 C-37.14685665 4.91279761 -35.41119326 4.55074788 -33.67578125 4.1875 C-30.26634482 3.48321631 -26.85646867 2.78199164 -23.44140625 2.10546875 C-22.75361084 1.96858643 -22.06581543 1.8317041 -21.35717773 1.69067383 C-14.20210595 0.48416 -7.24648452 0.07971893 0 0 Z M-155.8828125 91.2734375 C-159.86506298 95.71667868 -163.44317445 100.40190853 -166.8828125 105.2734375 C-167.4288916 106.04526367 -167.9749707 106.81708984 -168.53759766 107.61230469 C-190.41654315 138.84725914 -205.6035292 174.11928072 -209.8828125 212.2734375 C-210.02203125 213.49474365 -210.02203125 213.49474365 -210.1640625 214.74072266 C-212.36812235 236.16339727 -211.37186984 258.0602787 -207.8828125 279.2734375 C-207.7595459 280.04268555 -207.6362793 280.81193359 -207.50927734 281.60449219 C-201.62896545 316.44553693 -185.83263291 350.74717623 -163.8828125 378.2734375 C-163.17769531 379.170625 -162.47257812 380.0678125 -161.74609375 380.9921875 C-125.70321671 426.02960656 -73.15310984 457.28553974 -15.49755859 464.32666016 C11.71124183 467.0907453 39.49987477 466.74932197 66.1171875 460.2734375 C67.04547363 460.05413574 67.97375977 459.83483398 68.93017578 459.60888672 C89.92217068 454.52372737 110.50321953 446.23003967 129.1171875 435.2734375 C129.70967285 434.92490723 130.3021582 434.57637695 130.91259766 434.21728516 C147.17642748 424.49517937 161.56668353 412.44957061 175.1171875 399.2734375 C175.90738281 398.52320313 176.69757813 397.77296875 177.51171875 397 C217.38393313 358.46472378 239.41671042 300.7057132 240.40039062 246.01831055 C240.888901 184.61662767 220.15345703 127.581715 177.1171875 83.2734375 C176.56804687 82.69851562 176.01890625 82.12359375 175.453125 81.53125 C167.24471572 72.94802751 158.67272712 65.32324868 149.1171875 58.2734375 C147.87775391 57.34144531 147.87775391 57.34144531 146.61328125 56.390625 C70.04580445 0.68163173 -35.68908103 0.6224864 -155.8828125 91.2734375 Z " fill="#040404" transform="translate(234.8828125,9.7265625)"/>
<path d="M0 0 C1.20970459 0.00523682 2.41940918 0.01047363 3.66577148 0.01586914 C4.84083252 0.0183667 6.01589355 0.02086426 7.2265625 0.0234375 C8.7314624 0.0325415 10.2363623 0.04164551 11.78686523 0.05102539 C16.55124023 0.07165039 21.31561523 0.09227539 26.22436523 0.11352539 C25.89436523 14.30352539 25.56436523 28.49352539 25.22436523 43.11352539 C26.87436523 43.11352539 28.52436523 43.11352539 30.22436523 43.11352539 C30.25122462 45.25929176 30.27069611 47.40515184 30.28686523 49.55102539 C30.2984668 50.74598633 30.31006836 51.94094727 30.32202148 53.17211914 C30.22436523 56.11352539 30.22436523 56.11352539 29.22436523 57.11352539 C26.77606097 57.20196332 24.35615925 57.22881291 21.90795898 57.21118164 C21.17690445 57.20976669 20.44584991 57.20835175 19.69264221 57.20689392 C17.34900891 57.20127947 15.00546984 57.18872461 12.66186523 57.17602539 C11.07658015 57.17101225 9.49129358 57.16644902 7.90600586 57.16235352 C4.01208913 57.15130536 0.11824318 57.13403111 -3.77563477 57.11352539 C-3.81817833 55.11397793 -3.81644259 53.11310903 -3.77563477 51.11352539 C-3.28063477 50.61852539 -3.28063477 50.61852539 -2.77563477 50.11352539 C-2.73470539 47.78055106 -2.73321753 45.44647314 -2.77563477 43.11352539 C-1.12563477 43.11352539 0.52436523 43.11352539 2.22436523 43.11352539 C2.22436523 33.54352539 2.22436523 23.97352539 2.22436523 14.11352539 C0.24436523 14.11352539 -1.73563477 14.11352539 -3.77563477 14.11352539 C-3.80249415 11.96775903 -3.82196564 9.82189894 -3.83813477 7.67602539 C-3.84973633 6.48106445 -3.86133789 5.28610352 -3.87329102 4.05493164 C-3.74374886 0.15312193 -3.74374886 0.15312193 0 0 Z " fill="#020202" transform="translate(359.775634765625,256.886474609375)"/>
<path d="M0 0 C0.93328125 -0.00322266 1.8665625 -0.00644531 2.828125 -0.00976562 C10.53462518 0.04943235 18.6694403 0.47148376 25 5.3125 C27.34050341 7.76041782 27.96971383 9.0236997 28.328125 12.44140625 C28.28945313 14.14103516 28.28945313 14.14103516 28.25 15.875 C28.23453125 17.01066406 28.2190625 18.14632813 28.203125 19.31640625 C28 22.3125 28 22.3125 27 25.3125 C24.03 25.3125 21.06 25.3125 18 25.3125 C17.94392578 23.95705078 17.94392578 23.95705078 17.88671875 22.57421875 C17.82097656 21.39472656 17.75523437 20.21523438 17.6875 19 C17.62949219 17.82824219 17.57148438 16.65648437 17.51171875 15.44921875 C17.24137066 12.39154167 17.24137066 12.39154167 15.76953125 10.51953125 C9.21068348 6.04561522 1.59400574 6.67966619 -6 7.3125 C-10.8580923 8.47421772 -13.96217358 9.99163001 -17.0625 13.9375 C-18.65869105 19.68378777 -18.85168762 25.50512546 -17.0625 31.25 C-14.72856624 34.71553801 -12.96373904 35.53372419 -9.03344727 36.73901367 C-2.26877003 38.01790517 4.70511462 37.61292846 11.5625 37.5 C13.15949259 37.48492639 14.75649894 37.47124272 16.35351562 37.45898438 C20.23602124 37.42618925 24.11785633 37.37455574 28 37.3125 C27.67 38.9625 27.34 40.6125 27 42.3125 C21.89402338 43.98576484 17.29246191 44.62021987 11.90625 44.61328125 C11.15589478 44.61756638 10.40553955 44.6218515 9.63244629 44.62626648 C8.05591841 44.63197482 6.47936421 44.63253603 4.90283203 44.62817383 C2.50637532 44.62500842 0.11114881 44.64853407 -2.28515625 44.67382812 C-3.82551929 44.67610114 -5.36588562 44.6768046 -6.90625 44.67578125 C-7.6137439 44.684991 -8.32123779 44.69420074 -9.0501709 44.70368958 C-15.43855861 44.6449651 -19.91054774 43.07692635 -24.8125 38.9375 C-30.48566999 32.12969602 -29.67916482 23.68886615 -29 15.3125 C-27.56344627 9.97783833 -24.75436965 6.16512179 -20 3.3125 C-13.32756369 0.40137 -7.21407131 -0.12455234 0 0 Z " fill="#070707" transform="translate(422,270.6875)"/>
<path d="M0 0 C1.07185547 -0.00322266 2.14371094 -0.00644531 3.24804688 -0.00976562 C10.09065234 0.03627025 17.18848177 0.18799088 23.4375 3.3125 C23.53880722 10.06631462 23.57048734 16.64046347 22.4375 23.3125 C21.9425 23.8075 21.9425 23.8075 21.4375 24.3125 C18.7975 24.3125 16.1575 24.3125 13.4375 24.3125 C13.4375 18.7025 13.4375 13.0925 13.4375 7.3125 C10.12449133 7.23080938 6.81353952 7.17166957 3.5 7.125 C2.57380859 7.09986328 1.64761719 7.07472656 0.69335938 7.04882812 C-5.49719374 6.98366441 -10.91743883 7.62544778 -16.5625 10.3125 C-20.34101992 14.09101992 -20.73498968 18.00722682 -20.8125 23.1875 C-20.83828125 24.21617187 -20.8640625 25.24484375 -20.890625 26.3046875 C-20.50108034 29.87551357 -19.86575481 31.5504668 -17.5625 34.3125 C-12.43227968 36.99209347 -8.23954459 37.73234854 -2.44140625 37.60546875 C-1.32426491 37.59910149 -1.32426491 37.59910149 -0.18455505 37.59260559 C2.16901473 37.57595724 4.52169379 37.53833375 6.875 37.5 C8.48110733 37.48493515 10.08722823 37.47124991 11.69335938 37.45898438 C15.60841047 37.42609952 19.52280479 37.37441626 23.4375 37.3125 C23.480221 38.97861905 23.47813832 40.64632885 23.4375 42.3125 C20.16285792 45.58714208 12.07853383 44.50228197 7.59765625 44.55078125 C6.87186874 44.558853 6.14608124 44.56692474 5.39830017 44.57524109 C3.8730603 44.58898162 2.34779098 44.59974793 0.82250977 44.60766602 C-0.7241326 44.61920934 -2.27073441 44.63969844 -3.81713867 44.66918945 C-19.92507368 44.97550204 -19.92507368 44.97550204 -26.5625 40.3125 C-32.63898438 32.83374999 -32.2618516 24.54976904 -31.5625 15.3125 C-30.09498763 9.96086523 -27.38719062 6.14438363 -22.5625 3.3125 C-15.05699966 0.31246987 -8.00998953 -0.12085078 0 0 Z " fill="#070707" transform="translate(329.5625,270.6875)"/>
<path d="M0 0 C0.92264648 0.00008057 1.84529297 0.00016113 2.79589844 0.00024414 C19.64126545 0.14126545 19.64126545 0.14126545 22.6875 3.1875 C23.32162495 10.35458667 22.17580769 17.19776926 20.6875 24.1875 C18.0475 24.1875 15.4075 24.1875 12.6875 24.1875 C12.6875 18.5775 12.6875 12.9675 12.6875 7.1875 C9.04085036 7.07873497 5.39750079 6.9998124 1.75 6.9375 C0.72841797 6.90398437 -0.29316406 6.87046875 -1.34570312 6.8359375 C-8.07911137 6.74988755 -13.55662513 7.48706478 -19.3125 11.1875 C-23.08040895 15.98302048 -22.95101609 21.3390628 -22.3125 27.1875 C-21.77250917 30.29970523 -21.17076496 31.42825809 -19.3125 34.1875 C-11.0554821 38.04675837 -2.65052595 37.53121853 6.25 37.375 C7.75063759 37.35992392 9.25128985 37.34624069 10.75195312 37.33398438 C14.39744452 37.30121482 18.04237635 37.24959479 21.6875 37.1875 C21.6875 38.8375 21.6875 40.4875 21.6875 42.1875 C17.34261289 44.32693902 13.3200012 44.49413357 8.5703125 44.48828125 C7.40724075 44.49470894 7.40724075 44.49470894 6.22067261 44.50126648 C4.58511325 44.50699241 2.94952844 44.50752287 1.31396484 44.50317383 C-1.17264851 44.50001884 -3.65806519 44.52347612 -6.14453125 44.54882812 C-7.73958185 44.55110199 -9.33463561 44.55180421 -10.9296875 44.55078125 C-11.66532928 44.559991 -12.40097107 44.56920074 -13.15890503 44.57868958 C-19.53049034 44.52232201 -24.10964469 42.99873659 -29.125 38.875 C-34.4904855 32.28311782 -33.90342097 24.27573082 -33.3125 16.1875 C-32.4836951 11.96577503 -31.11062376 9.00779386 -28.0625 5.875 C-19.04674842 0.34260698 -10.26687001 -0.00836064 0 0 Z " fill="#080808" transform="translate(182.3125,270.8125)"/>
<path d="M0 0 C9.24 0 18.48 0 28 0 C27.9375 11.9375 27.9375 11.9375 27.90991211 15.70678711 C27.90741455 16.6788208 27.90491699 17.65085449 27.90234375 18.65234375 C27.89710693 19.65257568 27.89187012 20.65280762 27.88647461 21.68334961 C27.73818905 23.96207228 27.73818905 23.96207228 29 25 C31.33297433 25.04092937 33.66705225 25.04241723 36 25 C36.33 21.37 36.66 17.74 37 14 C35.35 14 33.7 14 32 14 C32 12.02 32 10.04 32 8 C36.95 8 41.9 8 47 8 C47 17.24 47 26.48 47 36 C52.94 36 58.88 36 65 36 C65 37.65 65 39.3 65 41 C56.75 41 48.5 41 40 41 C39.34 38.36 38.68 35.72 38 33 C36.74703125 33.03480469 35.4940625 33.06960937 34.203125 33.10546875 C32.55209676 33.13361128 30.90105399 33.16091094 29.25 33.1875 C28.0125 33.22520508 28.0125 33.22520508 26.75 33.26367188 C25.55117187 33.27817383 25.55117187 33.27817383 24.328125 33.29296875 C23.5949707 33.3086792 22.86181641 33.32438965 22.10644531 33.34057617 C19.27524839 32.88282006 17.984876 32.06886853 16 30 C15.54589844 27.45629883 15.54589844 27.45629883 15.609375 24.45703125 C15.62871094 22.84731445 15.62871094 22.84731445 15.6484375 21.20507812 C15.68195313 20.08552734 15.71546875 18.96597656 15.75 17.8125 C15.76804688 16.68134766 15.78609375 15.55019531 15.8046875 14.38476562 C15.85186525 11.58948369 15.92360903 8.79463616 16 6 C10.39 6 4.78 6 -1 6 C-0.67 4.02 -0.34 2.04 0 0 Z " fill="#020202" transform="translate(153,176)"/>
<path d="M0 0 C0.91007812 -0.00386719 1.82015625 -0.00773438 2.7578125 -0.01171875 C4.06105469 -0.00978516 4.06105469 -0.00978516 5.390625 -0.0078125 C6.17985352 -0.00668457 6.96908203 -0.00555664 7.78222656 -0.00439453 C9.75 0.125 9.75 0.125 11.75 1.125 C11.75 9.375 11.75 17.625 11.75 26.125 C17.36 26.125 22.97 26.125 28.75 26.125 C28.75 28.105 28.75 30.085 28.75 32.125 C20.5 32.125 12.25 32.125 3.75 32.125 C2.76 29.485 1.77 26.845 0.75 24.125 C-1.00376953 24.19460937 -1.00376953 24.19460937 -2.79296875 24.265625 C-4.3411202 24.30315594 -5.88929939 24.33955469 -7.4375 24.375 C-8.20642578 24.40851563 -8.97535156 24.44203125 -9.76757812 24.4765625 C-13.59325141 24.54223929 -15.81594492 24.35300559 -19.26171875 22.54296875 C-22.61868786 18.46052499 -21.92431538 14.50531658 -21.734375 9.4296875 C-21.25 6.125 -21.25 6.125 -19.125 2.8125 C-13.27079731 -0.62366245 -6.59909873 -0.02852636 0 0 Z " fill="#060606" transform="translate(256.25,184.875)"/>
<path d="M0 0 C6.27 0 12.54 0 19 0 C19 4.95 19 9.9 19 15 C17.19273437 15.03738281 15.38546875 15.07476562 13.5234375 15.11328125 C11.14060456 15.17894987 8.75779298 15.2453969 6.375 15.3125 C5.18519531 15.33505859 3.99539062 15.35761719 2.76953125 15.38085938 C-5.60746886 15.47105407 -5.60746886 15.47105407 -13 19 C-15.89548511 22.61630207 -16.4100311 25.42260268 -16.375 30 C-16.38273438 31.010625 -16.39046875 32.02125 -16.3984375 33.0625 C-15.94572924 36.40011386 -14.97876296 38.29729937 -13 41 C-10.703463 42.1482685 -9.41686833 42.11561175 -6.8671875 42.09765625 C-6.06152344 42.09443359 -5.25585938 42.09121094 -4.42578125 42.08789062 C-3.58402344 42.07951172 -2.74226563 42.07113281 -1.875 42.0625 C-0.60076172 42.05573242 -0.60076172 42.05573242 0.69921875 42.04882812 C2.79950909 42.03702874 4.8997633 42.01909306 7 42 C3.375 47.75 3.375 47.75 0 50 C-3.08783741 50.47554742 -6.1918494 50.41630313 -9.3125 50.4375 C-10.15490234 50.47037109 -10.99730469 50.50324219 -11.86523438 50.53710938 C-16.10937725 50.57361099 -19.08069769 50.41624954 -22.48046875 47.72265625 C-27.20749914 42.61453194 -27.34009065 39.00419142 -27.3125 32.25 C-27.32861328 31.4765625 -27.34472656 30.703125 -27.36132812 29.90625 C-27.36674125 23.45380937 -26.40892397 17.54657677 -21.8125 12.6875 C-14.80505523 8.48303314 -9.01030123 7.5725601 -1 7.8125 C0.30517578 7.83280273 0.30517578 7.83280273 1.63671875 7.85351562 C3.75808627 7.88848322 5.87912974 7.9422747 8 8 C8 6.68 8 5.36 8 4 C5.36 4 2.72 4 0 4 C0 2.68 0 1.36 0 0 Z " fill="#040404" transform="translate(249,168)"/>
<path d="M0 0 C0.75087891 -0.020625 1.50175781 -0.04125 2.27539062 -0.0625 C6.86898951 -0.09482084 9.82476585 0.28285844 13.5625 3.25 C14.74556728 5.61613456 14.69604608 7.11780736 14.6875 9.75 C14.69136719 10.94109375 14.69136719 10.94109375 14.6953125 12.15625 C14.5625 14.25 14.5625 14.25 13.5625 16.25 C6.6325 16.25 -0.2975 16.25 -7.4375 16.25 C-6.4475 17.57 -5.4575 18.89 -4.4375 20.25 C-1.85952563 20.60711867 0.28564113 20.71813593 2.85546875 20.640625 C3.56149734 20.63496521 4.26752594 20.62930542 4.99494934 20.62347412 C7.24732626 20.60110411 9.49810503 20.55091199 11.75 20.5 C13.27797179 20.47993556 14.80596856 20.46168468 16.33398438 20.4453125 C20.07743756 20.40123802 23.81969795 20.33221074 27.5625 20.25 C27.5625 21.9 27.5625 23.55 27.5625 25.25 C19.4751348 27.2363704 11.47939185 27.49752436 3.1875 27.5625 C2.14142578 27.57990234 1.09535156 27.59730469 0.01757812 27.61523438 C-5.47271793 27.61170817 -9.83651896 27.60214333 -14.4375 24.25 C-18.01755009 19.75218283 -17.99636965 15.70260781 -17.859375 10.140625 C-17.21297463 5.71158546 -15.83937414 4.11066689 -12.4375 1.25 C-8.37777934 -0.08179834 -4.23232711 0.02891428 0 0 Z " fill="#060606" transform="translate(423.4375,279.75)"/>
<path d="M0 0 C4.29 0 8.58 0 13 0 C22 19.33333333 22 19.33333333 22 25 C27.94 25 33.88 25 40 25 C39.20383965 28.98080177 38.60457843 31.2092891 36.75 34.625 C36.35296875 35.38039062 35.9559375 36.13578125 35.546875 36.9140625 C33.62650705 39.50364958 31.87520132 40.54796842 29 42 C26.32104492 42.34057617 26.32104492 42.34057617 23.48046875 42.29296875 C22.45888672 42.28330078 21.43730469 42.27363281 20.38476562 42.26367188 C19.32966797 42.23853516 18.27457031 42.21339844 17.1875 42.1875 C15.57584961 42.16719727 15.57584961 42.16719727 13.93164062 42.14648438 C11.28724545 42.11122577 8.64388252 42.06194366 6 42 C6.33 39.69 6.66 37.38 7 35 C7.56509277 34.98541748 8.13018555 34.97083496 8.71240234 34.95581055 C11.26730019 34.88143942 13.82087498 34.78474758 16.375 34.6875 C17.26445312 34.66494141 18.15390625 34.64238281 19.0703125 34.61914062 C19.92109375 34.58369141 20.771875 34.54824219 21.6484375 34.51171875 C22.82672119 34.47244263 22.82672119 34.47244263 24.02880859 34.43237305 C26.40040156 34.15110403 26.40040156 34.15110403 28 31 C26.64455078 31.05220703 26.64455078 31.05220703 25.26171875 31.10546875 C24.08222656 31.13253906 22.90273438 31.15960938 21.6875 31.1875 C20.51574219 31.22230469 19.34398437 31.25710937 18.13671875 31.29296875 C15 31 15 31 13.42285156 29.78491211 C11.72471307 27.65466322 10.98060678 25.72445596 10.09765625 23.1484375 C9.59782227 21.74851563 9.59782227 21.74851563 9.08789062 20.3203125 C8.40229021 18.35100693 7.72263121 16.37962319 7.04882812 14.40625 C6.54706055 13.01019531 6.54706055 13.01019531 6.03515625 11.5859375 C5.7400415 10.7304834 5.44492676 9.8750293 5.14086914 8.99365234 C4.17132751 6.80470425 4.17132751 6.80470425 1.87280273 6.21337891 C1.25477783 6.14296387 0.63675293 6.07254883 0 6 C0 4.02 0 2.04 0 0 Z " fill="#080808" transform="translate(287,184)"/>
<path d="M0 0 C0.93457031 0.00322266 1.86914062 0.00644531 2.83203125 0.00976562 C3.80011719 0.01814453 4.76820313 0.02652344 5.765625 0.03515625 C6.74917969 0.03966797 7.73273438 0.04417969 8.74609375 0.04882812 C11.16929694 0.06059125 13.59246877 0.07852607 16.015625 0.09765625 C16.015625 5.04765625 16.015625 9.99765625 16.015625 15.09765625 C12.715625 15.09765625 9.415625 15.09765625 6.015625 15.09765625 C6.015625 12.12765625 6.015625 9.15765625 6.015625 6.09765625 C1.67378298 6.28229991 1.67378298 6.28229991 -1.984375 8.09765625 C-2.18379368 10.16538359 -2.18379368 10.16538359 -2.171875 12.53515625 C-2.19314453 13.73978516 -2.19314453 13.73978516 -2.21484375 14.96875 C-2.18599856 17.31396258 -2.18599856 17.31396258 0.015625 19.09765625 C3.02826225 19.37656772 3.02826225 19.37656772 6.5546875 19.29296875 C7.85664063 19.28652344 9.15859375 19.28007812 10.5 19.2734375 C11.88021095 19.25672554 13.26041929 19.23979564 14.640625 19.22265625 C16.02863952 19.21262631 17.41666089 19.20350048 18.8046875 19.1953125 C22.20850526 19.17167488 25.61198006 19.13872492 29.015625 19.09765625 C29.015625 21.07765625 29.015625 23.05765625 29.015625 25.09765625 C22.24762683 27.59952303 15.60426782 27.42932821 8.453125 27.41015625 C6.64424805 27.43432617 6.64424805 27.43432617 4.79882812 27.45898438 C3.04795898 27.45995117 3.04795898 27.45995117 1.26171875 27.4609375 C0.20654053 27.46391846 -0.8486377 27.46689941 -1.93579102 27.4699707 C-6.161063 26.95395086 -9.31863828 25.20579466 -12.828125 22.87109375 C-14.73252213 19.95016032 -14.45742071 17.15259015 -14.484375 13.72265625 C-14.5153125 12.41554688 -14.54625 11.1084375 -14.578125 9.76171875 C-13.84793125 5.25565468 -12.56408978 3.84416156 -8.984375 1.09765625 C-5.95831539 0.08115147 -3.17755892 -0.01937536 0 0 Z " fill="#070707" transform="translate(324.984375,279.90234375)"/>
<path d="M0 0 C0.93457031 0.00322266 1.86914062 0.00644531 2.83203125 0.00976562 C3.80011719 0.01814453 4.76820313 0.02652344 5.765625 0.03515625 C6.74917969 0.03966797 7.73273438 0.04417969 8.74609375 0.04882812 C11.16929694 0.06059125 13.59246877 0.07852607 16.015625 0.09765625 C16.015625 5.04765625 16.015625 9.99765625 16.015625 15.09765625 C12.715625 15.09765625 9.415625 15.09765625 6.015625 15.09765625 C6.015625 12.12765625 6.015625 9.15765625 6.015625 6.09765625 C1.67378298 6.28229991 1.67378298 6.28229991 -1.984375 8.09765625 C-2.18379368 10.16538359 -2.18379368 10.16538359 -2.171875 12.53515625 C-2.19314453 13.73978516 -2.19314453 13.73978516 -2.21484375 14.96875 C-2.18599856 17.31396258 -2.18599856 17.31396258 0.015625 19.09765625 C3.02826225 19.37656772 3.02826225 19.37656772 6.5546875 19.29296875 C7.85664063 19.28652344 9.15859375 19.28007812 10.5 19.2734375 C11.88021095 19.25672554 13.26041929 19.23979564 14.640625 19.22265625 C16.02863952 19.21262631 17.41666089 19.20350048 18.8046875 19.1953125 C22.20850526 19.17167488 25.61198006 19.13872492 29.015625 19.09765625 C29.015625 21.40765625 29.015625 23.71765625 29.015625 26.09765625 C22.18617064 27.34486146 15.37997771 27.31794321 8.453125 27.34765625 C7.24720703 27.36828125 6.04128906 27.38890625 4.79882812 27.41015625 C3.04795898 27.41789062 3.04795898 27.41789062 1.26171875 27.42578125 C-0.32104858 27.4397998 -0.32104858 27.4397998 -1.93579102 27.45410156 C-6.54551897 26.9151248 -9.9224408 25.43182358 -12.828125 21.78125 C-14.8967397 16.98010709 -14.73108408 12.21399627 -13.984375 7.09765625 C-12.63124123 4.24104052 -11.47900997 3.19541747 -8.984375 1.09765625 C-5.96646348 0.06198189 -3.17430512 -0.01935552 0 0 Z " fill="#070707" transform="translate(175.984375,279.90234375)"/>
<path d="M0 0 C1.29349365 0.00523682 2.5869873 0.01047363 3.91967773 0.01586914 C5.17594971 0.0183667 6.43222168 0.02086426 7.7265625 0.0234375 C9.33587646 0.0325415 10.94519043 0.04164551 12.60327148 0.05102539 C17.69764648 0.07165039 22.79202148 0.09227539 28.04077148 0.11352539 C27.71077148 14.30352539 27.38077148 28.49352539 27.04077148 43.11352539 C28.69077148 43.11352539 30.34077148 43.11352539 32.04077148 43.11352539 C32.04077148 45.09352539 32.04077148 47.07352539 32.04077148 49.11352539 C27.09077148 49.11352539 22.14077148 49.11352539 17.04077148 49.11352539 C17.04077148 34.92352539 17.04077148 20.73352539 17.04077148 6.11352539 C10.11077148 6.11352539 3.18077148 6.11352539 -3.95922852 6.11352539 C-3.95922852 0.15188856 -3.95922852 0.15188856 0 0 Z " fill="#101010" transform="translate(252.959228515625,159.886474609375)"/>
<path d="M0 0 C7.59 0 15.18 0 23 0 C24.33899425 3.76891017 25.67140712 7.53992462 27 11.3125 C27.3815625 12.38435547 27.763125 13.45621094 28.15625 14.56054688 C28.5171875 15.58857422 28.878125 16.61660156 29.25 17.67578125 C29.58515625 18.62364502 29.9203125 19.57150879 30.265625 20.5480957 C31 23 31 23 31 26 C31.66 26 32.32 26 33 26 C33.13277344 25.38511719 33.26554687 24.77023438 33.40234375 24.13671875 C33.57894531 23.32847656 33.75554687 22.52023438 33.9375 21.6875 C34.11152344 20.88699219 34.28554688 20.08648437 34.46484375 19.26171875 C35 17 35 17 36 14 C34.35 14 32.7 14 31 14 C31 12.02 31 10.04 31 8 C36.61 8 42.22 8 48 8 C41.75 29.25 41.75 29.25 40 31 C37.13530675 31.07330331 34.30106326 31.09217831 31.4375 31.0625 C28.653125 31.041875 25.86875 31.02125 23 31 C18.545 19.12 18.545 19.12 14 7 C7.07 6.505 7.07 6.505 0 6 C0 4.02 0 2.04 0 0 Z " fill="#070707" transform="translate(288,176)"/>
<path d="M0 0 C8.25 0 16.5 0 25 0 C25.99 2.64 26.98 5.28 28 8 C34.93 8 41.86 8 49 8 C48.67 10.64 48.34 13.28 48 16 C42.06 16.33 36.12 16.66 30 17 C29.67 20.3 29.34 23.6 29 27 C32.96 27 36.92 27 41 27 C41 28.98 41 30.96 41 33 C33.74 33 26.48 33 19 33 C19 24.09 19 15.18 19 6 C12.73 6 6.46 6 0 6 C0 4.02 0 2.04 0 0 Z " fill="#030303" transform="translate(247,273)"/>
<path d="M0 0 C3.96 0 7.92 0 12 0 C11.67 1.98 11.34 3.96 11 6 C9.68 6 8.36 6 7 6 C6.9175 6.94875 6.835 7.8975 6.75 8.875 C6.17051894 12.86786262 4.80021426 16.28776206 3.23046875 19.98828125 C2.29034077 22.28935639 1.43114899 24.57356466 0.61328125 26.91796875 C-5.34868205 43.90648687 -5.34868205 43.90648687 -13.2890625 49.1875 C-19.36508705 52.09384882 -25.91885494 51.42389204 -32.5 51.25 C-33.799375 51.23195312 -35.09875 51.21390625 -36.4375 51.1953125 C-39.62577151 51.14842615 -42.812493 51.08280893 -46 51 C-46 48.69 -46 46.38 -46 44 C-45.01773437 44.03927612 -45.01773437 44.03927612 -44.015625 44.0793457 C-41.01066675 44.18412664 -38.00609401 44.24857941 -35 44.3125 C-33.45505859 44.3753418 -33.45505859 44.3753418 -31.87890625 44.43945312 C-24.95705944 44.54967362 -20.25389578 43.6943441 -15 39 C-13.26805608 37.01866944 -13.26805608 37.01866944 -12.375 34.75 C-11.99214844 33.88632813 -11.60929687 33.02265625 -11.21484375 32.1328125 C-8.63517461 25.48041814 -6.27327941 18.76256878 -4 12 C-3.58105469 10.75863281 -3.16210938 9.51726562 -2.73046875 8.23828125 C-1.81172887 5.49504733 -0.90440305 2.74799389 0 0 Z " fill="#090909" transform="translate(338,184)"/>
<path d="M0 0 C1.02480469 0.00322266 2.04960938 0.00644531 3.10546875 0.00976562 C4.16894531 0.01814453 5.23242188 0.02652344 6.328125 0.03515625 C7.40707031 0.03966797 8.48601562 0.04417969 9.59765625 0.04882812 C12.25786883 0.06059898 14.91796865 0.07704226 17.578125 0.09765625 C17.578125 3.06765625 17.578125 6.03765625 17.578125 9.09765625 C14.608125 9.09765625 11.638125 9.09765625 8.578125 9.09765625 C8.578125 7.77765625 8.578125 6.45765625 8.578125 5.09765625 C4.123125 5.59265625 4.123125 5.59265625 -0.421875 6.09765625 C-0.091875 7.08765625 0.238125 8.07765625 0.578125 9.09765625 C1.38636719 9.20722656 2.19460937 9.31679687 3.02734375 9.4296875 C4.09597656 9.58824219 5.16460937 9.74679688 6.265625 9.91015625 C7.84923828 10.13638672 7.84923828 10.13638672 9.46484375 10.3671875 C12.71183858 11.12902945 14.8756978 12.16456869 17.578125 14.09765625 C18.99854321 16.93849266 18.89264772 18.95242903 18.578125 22.09765625 C16.7110259 24.40041181 15.22164759 25.77589496 12.578125 27.09765625 C10.77678152 27.19419908 8.97189631 27.22841065 7.16796875 27.23046875 C5.56018555 27.23240234 5.56018555 27.23240234 3.91992188 27.234375 C2.79650391 27.23050781 1.67308594 27.22664063 0.515625 27.22265625 C-1.17530273 27.22845703 -1.17530273 27.22845703 -2.90039062 27.234375 C-4.50624023 27.23244141 -4.50624023 27.23244141 -6.14453125 27.23046875 C-7.13203369 27.22934082 -8.11953613 27.22821289 -9.13696289 27.22705078 C-11.421875 27.09765625 -11.421875 27.09765625 -12.421875 26.09765625 C-12.56302661 23.42706774 -12.46434607 20.77333387 -12.421875 18.09765625 C-9.451875 18.09765625 -6.481875 18.09765625 -3.421875 18.09765625 C-3.091875 19.41765625 -2.761875 20.73765625 -2.421875 22.09765625 C0.878125 22.09765625 4.178125 22.09765625 7.578125 22.09765625 C7.248125 21.10765625 6.918125 20.11765625 6.578125 19.09765625 C3.10872426 18.19851836 -0.36675479 17.69207888 -3.90625 17.13671875 C-8.03906797 15.91524144 -9.76615476 14.45225024 -12.421875 11.09765625 C-12.91403773 7.52947647 -13.20836515 5.27739147 -11.171875 2.22265625 C-7.65419481 -0.03870958 -4.09314599 -0.0227397 0 0 Z " fill="#090909" transform="translate(76.421875,182.90234375)"/>
<path d="M0 0 C1.17304687 -0.01224609 2.34609375 -0.02449219 3.5546875 -0.03710938 C10.88428222 -0.04932537 17.72061593 0.58054048 24.875 2.1875 C25.04142671 7.93249755 25.15321622 12.77673649 22.875 18.1875 C20.235 18.1875 17.595 18.1875 14.875 18.1875 C14.875 14.5575 14.875 10.9275 14.875 7.1875 C11.02040544 7.10625562 7.16753885 7.04687656 3.3125 7 C2.22646484 6.97486328 1.14042969 6.94972656 0.02148438 6.92382812 C-6.16473974 6.86741879 -10.69949062 7.11378892 -16.125 10.1875 C-18.53730371 12.16848541 -18.53730371 12.16848541 -18.4375 16 C-18.36155163 19.79051431 -17.43123182 22.11252424 -15.125 25.1875 C-16.7315676 24.93129316 -18.3352483 24.65694129 -19.9375 24.375 C-20.83082031 24.22417969 -21.72414063 24.07335937 -22.64453125 23.91796875 C-25.36146816 23.11786292 -26.41720958 22.41247616 -28.125 20.1875 C-29.75833319 15.28750043 -29.81986987 11.63282932 -27.5625 6.9375 C-20.54353462 -0.98133273 -9.69348808 0.00522278 0 0 Z " fill="#0D0D0D" transform="translate(81.125,173.8125)"/>
<path d="M0 0 C5.28 0 10.56 0 16 0 C16.04898438 1.46953125 16.09796875 2.9390625 16.1484375 4.453125 C16.22347868 6.38543535 16.29902593 8.3177261 16.375 10.25 C16.4059375 11.21808594 16.436875 12.18617188 16.46875 13.18359375 C16.50742188 14.11816406 16.54609375 15.05273438 16.5859375 16.015625 C16.63306885 17.30388184 16.63306885 17.30388184 16.68115234 18.61816406 C17.02210185 21.16510387 17.63774894 22.82983905 19 25 C21.34938888 26.17469444 22.95073205 26.20034889 25.5703125 26.31640625 C26.46621094 26.35830078 27.36210937 26.40019531 28.28515625 26.44335938 C29.22230469 26.48267578 30.15945312 26.52199219 31.125 26.5625 C32.06988281 26.60568359 33.01476562 26.64886719 33.98828125 26.69335938 C36.32537092 26.79959072 38.6625683 26.90163176 41 27 C41 28.98 41 30.96 41 33 C35.63807016 34.58143901 30.10668368 34.26532884 24.5625 34.3125 C22.86383789 34.35600586 22.86383789 34.35600586 21.13085938 34.40039062 C12.89069752 34.46351502 12.89069752 34.46351502 8.83984375 32.35546875 C4.55277029 26.86692247 4.73710949 21.27556558 4.875 14.625 C4.88402344 13.79355469 4.89304687 12.96210938 4.90234375 12.10546875 C4.9257378 10.07018663 4.96160275 8.03505436 5 6 C3.35 6 1.7 6 0 6 C0 4.02 0 2.04 0 0 Z " fill="#0A0A0A" transform="translate(108,184)"/>
<path d="M0 0 C4.62387356 0.67494451 8.17743763 1.42924244 12.0625 4.125 C14.13970356 7.20730206 14.68727711 9.28420329 14.40625 13.0078125 C13.68484556 16.54546887 12.4882082 18.39041579 10 21 C2.13321966 24.65274213 -5.75580444 24.39382322 -14.24804688 24.28125 C-16.62646213 24.24998078 -19.00421148 24.24025535 -21.3828125 24.234375 C-22.91407048 24.22520639 -24.44532181 24.21483107 -25.9765625 24.203125 C-26.67778229 24.19887512 -27.37900208 24.19462524 -28.10147095 24.19024658 C-32.54820516 24.12659122 -36.53952034 23.63721138 -41 23 C-40.67 17.72 -40.34 12.44 -40 7 C-37.03 7 -34.06 7 -31 7 C-30.67 10.3 -30.34 13.6 -30 17 C-25.60429206 17.0872253 -21.20880729 17.14046869 -16.8125 17.1875 C-14.94368164 17.22520508 -14.94368164 17.22520508 -13.03710938 17.26367188 C-11.83505859 17.27333984 -10.63300781 17.28300781 -9.39453125 17.29296875 C-7.73707886 17.31653442 -7.73707886 17.31653442 -6.04614258 17.34057617 C-2.61134644 16.95654631 -0.75709465 16.04813635 2 14 C3.58873246 10.82253509 3.41026221 7.45987798 3 4 C1.66169042 1.5404226 1.66169042 1.5404226 0 0 Z " fill="#0B0B0B" transform="translate(93,194)"/>
<path d="M0 0 C9.9 0 19.8 0 30 0 C29.67 8.91 29.34 17.82 29 27 C30.65 27 32.3 27 34 27 C34 29.31 34 31.62 34 34 C28.72 34 23.44 34 18 34 C18 24.76 18 15.52 18 6 C11.73 6 5.46 6 -1 6 C-0.67 4.02 -0.34 2.04 0 0 Z " fill="#0D0D0D" transform="translate(209,273)"/>
<path d="M0 0 C4.95 0 9.9 0 15 0 C14.93039063 2.31257812 14.93039063 2.31257812 14.859375 4.671875 C14.82185607 6.6978973 14.78545604 8.72394055 14.75 10.75 C14.71648437 11.76578125 14.68296875 12.7815625 14.6484375 13.828125 C14.52326668 19.47806019 14.52326668 19.47806019 16.46875 24.65625 C20.18283248 26.62792342 23.5988122 26.67427352 27.75 26.75 C28.93916016 26.79447266 28.93916016 26.79447266 30.15234375 26.83984375 C32.10102094 26.91027787 34.05051495 26.95743482 36 27 C34.52605644 31.66748793 34.52605644 31.66748793 32.19506836 33.14086914 C28.39959577 34.62638444 24.59431376 34.40998952 20.5625 34.4375 C19.71623047 34.47037109 18.86996094 34.50324219 17.99804688 34.53710938 C13.6314936 34.5747226 11.61871559 34.46098783 8.02734375 31.78515625 C3.86245187 26.06344544 3.73402704 21.557221 3.875 14.6875 C3.88402344 13.85154297 3.89304688 13.01558594 3.90234375 12.15429688 C3.92579011 10.10274031 3.96165734 8.05133223 4 6 C2.68 6 1.36 6 0 6 C0 4.02 0 2.04 0 0 Z " fill="#0A0A0A" transform="translate(152,184)"/>
<path d="M0 0 C9.24 0 18.48 0 28 0 C27.67 8.91 27.34 17.82 27 27 C28.98 27 30.96 27 33 27 C33 28.98 33 30.96 33 33 C27.72 33 22.44 33 17 33 C17 24.09 17 15.18 17 6 C11.06 6 5.12 6 -1 6 C-0.67 4.02 -0.34 2.04 0 0 Z " fill="#020202" transform="translate(186,176)"/>
<path d="M0 0 C5.28 0 10.56 0 16 0 C16 13.53 16 27.06 16 41 C11.05 41 6.1 41 1 41 C1 39.02 1 37.04 1 35 C2.65 35 4.3 35 6 35 C6 25.43 6 15.86 6 6 C4.02 6 2.04 6 0 6 C0 4.02 0 2.04 0 0 Z " fill="#000000" transform="translate(356,265)"/>
<path d="M0 0 C0.33 1.32 0.66 2.64 1 4 C6.94 4 12.88 4 19 4 C19 18.52 19 33.04 19 48 C23.95 48 28.9 48 34 48 C34 50.31 34 52.62 34 55 C33 56 33 56 29.85717773 56.11352539 C28.46597303 56.11336633 27.07476239 56.10767506 25.68359375 56.09765625 C24.95253922 56.0962413 24.22148468 56.09482635 23.46827698 56.09336853 C21.12464368 56.08775408 18.78110461 56.07519922 16.4375 56.0625 C14.85221492 56.05748686 13.26692834 56.05292363 11.68164062 56.04882812 C7.7877239 56.03777997 3.89387795 56.02050572 0 56 C-0.125 50.25 -0.125 50.25 1 48 C5.95 48 10.9 48 16 48 C16 34.47 16 20.94 16 7 C10.72 7 5.44 7 0 7 C0 4.69 0 2.38 0 0 Z " fill="#AFAFAF" transform="translate(356,258)"/>
<path d="M0 0 C7.59 0 15.18 0 23 0 C23 1.65 23 3.3 23 5 C22 6 22 6 19.49609375 6.09765625 C16.6640625 6.06510417 13.83203125 6.03255208 11 6 C11.33 9.96 11.66 13.92 12 18 C15.96 18.33 19.92 18.66 24 19 C24 20.65 24 22.3 24 24 C21.75741065 26.24258935 16.69707074 25.27942779 13.6875 25.3125 C12.81931641 25.34150391 11.95113281 25.37050781 11.05664062 25.40039062 C7.34707224 25.4374009 4.73256106 25.38119693 1.41015625 23.65234375 C-0.88163792 19.34173921 -0.41451601 15.03843498 -0.25 10.25 C-0.1675 6.8675 -0.085 3.485 0 0 Z " fill="#0B0B0B" transform="translate(126,184)"/>
<path d="M0 0 C5.61 0 11.22 0 17 0 C17 8.25 17 16.5 17 25 C11.72 25 6.44 25 1 25 C1 23.02 1 21.04 1 19 C2.65 19 4.3 19 6 19 C6 14.71 6 10.42 6 6 C4.02 6 2.04 6 0 6 C0 4.02 0 2.04 0 0 Z " fill="#070707" transform="translate(208,281)"/>
<path d="M0 0 C5.61 0 11.22 0 17 0 C17 8.25 17 16.5 17 25 C12.05 25 7.1 25 2 25 C2 23.02 2 21.04 2 19 C3.65 19 5.3 19 7 19 C7 14.71 7 10.42 7 6 C4.69 6 2.38 6 0 6 C0 4.02 0 2.04 0 0 Z " fill="#020202" transform="translate(246,281)"/>
<path d="M0 0 C1.70512741 2.55769112 2.68063145 4.53999311 3.7265625 7.37890625 C4.0359375 8.21744141 4.3453125 9.05597656 4.6640625 9.91992188 C4.98117187 10.79197266 5.29828125 11.66402344 5.625 12.5625 C5.94984375 13.43841797 6.2746875 14.31433594 6.609375 15.21679688 C9 21.74079241 9 21.74079241 9 24 C17.415 23.505 17.415 23.505 26 23 C28.31 16.4 30.62 9.8 33 3 C33.99 3.33 34.98 3.66 36 4 C30.54405449 22.02250851 30.54405449 22.02250851 27 30 C26.60941406 30.886875 26.21882813 31.77375 25.81640625 32.6875 C22.78910389 39.17592376 19.69399551 43.09741688 13 46 C10.89355469 46.22705078 10.89355469 46.22705078 8.671875 46.1953125 C7.87265625 46.18886719 7.0734375 46.18242187 6.25 46.17578125 C5.425 46.15902344 4.6 46.14226562 3.75 46.125 C2.90953125 46.11597656 2.0690625 46.10695312 1.203125 46.09765625 C-0.86470604 46.07415817 -2.93238995 46.03828908 -5 46 C-5 45.01 -5 44.02 -5 43 C-3.68644531 42.95101562 -2.37289063 42.90203125 -1.01953125 42.8515625 C0.71616595 42.77650532 2.45184203 42.70095877 4.1875 42.625 C5.05181641 42.5940625 5.91613281 42.563125 6.80664062 42.53125 C13.1355779 42.26100857 13.1355779 42.26100857 19 40 C20.18028284 37.84902067 20.18028284 37.84902067 21 35 C21.69435909 33.38973534 22.40371598 31.78588549 23.125 30.1875 C23.74375 28.805625 24.3625 27.42375 25 26 C19.06 26 13.12 26 7 26 C5.63253043 22.42123936 4.28070434 18.837858 2.9375 15.25 C2.54755859 14.23421875 2.15761719 13.2184375 1.75585938 12.171875 C1.39169922 11.1921875 1.02753906 10.2125 0.65234375 9.203125 C0.14175415 7.85202637 0.14175415 7.85202637 -0.37915039 6.47363281 C-1.03794154 3.84883063 -0.90567926 2.51435034 0 0 Z " fill="#F2F2F2" transform="translate(302,183)"/>
<path d="M0 0 C0 5.61 0 11.22 0 17 C-0.99 17 -1.98 17 -3 17 C-3 12.05 -3 7.1 -3 2 C-6.3965175 2.11411818 -9.79176347 2.24086952 -13.1875 2.375 C-14.62706055 2.42140625 -14.62706055 2.42140625 -16.09570312 2.46875 C-17.49272461 2.52675781 -17.49272461 2.52675781 -18.91796875 2.5859375 C-20.19837036 2.63306885 -20.19837036 2.63306885 -21.50463867 2.68115234 C-25.22724023 3.15681203 -28.09253687 4.11036911 -30.7890625 6.75390625 C-32.33809275 9.62710752 -32.39961521 11.68418963 -32.375 14.9375 C-32.38273438 15.95714844 -32.39046875 16.97679687 -32.3984375 18.02734375 C-31.9374663 21.46655046 -31.1592549 23.28914505 -29 26 C-24.96925296 28.09008386 -21.58698823 28.2229882 -17.08984375 28.16015625 C-15.77048828 28.14919922 -14.45113281 28.13824219 -13.09179688 28.12695312 C-11.70702044 28.10617739 -10.32225456 28.08468587 -8.9375 28.0625 C-6.21743632 28.0260125 -3.49756428 27.99792969 -0.77734375 27.97265625 C1.02875366 27.94570679 1.02875366 27.94570679 2.87133789 27.91821289 C5.4748637 27.98627229 7.5353877 28.22095808 10 29 C9.505 30.485 9.505 30.485 9 32 C9 31.34 9 30.68 9 30 C8.46785889 30.16081055 7.93571777 30.32162109 7.38745117 30.48730469 C2.14916443 31.6122052 -3.35205319 31.22818928 -8.6875 31.25 C-9.92951172 31.270625 -11.17152344 31.29125 -12.45117188 31.3125 C-26.18945591 31.37074392 -26.18945591 31.37074392 -32 28 C-35.84553847 23.38856112 -36.6699289 18.28973375 -36.37109375 12.39453125 C-35.64162534 7.68754035 -34.09094949 4.68174219 -30.36328125 1.68359375 C-21.7614622 -3.16654784 -9.34543582 -1.86908716 0 0 Z " fill="#D4D4D4" transform="translate(195,278)"/>
<path d="M0 0 C1.86328125 1.26953125 1.86328125 1.26953125 3 3 C3.29296875 6.13671875 3.29296875 6.13671875 3.1875 9.6875 C3.14689453 11.45673828 3.14689453 11.45673828 3.10546875 13.26171875 C3.07066406 14.16535156 3.03585937 15.06898438 3 16 C5.64 16 8.28 16 11 16 C11 16.33 11 16.66 11 17 C8.03 17 5.06 17 2 17 C1.81824219 15.75283203 1.81824219 15.75283203 1.6328125 14.48046875 C1.38144531 12.85044922 1.38144531 12.85044922 1.125 11.1875 C0.88136719 9.56908203 0.88136719 9.56908203 0.6328125 7.91796875 C0.14867662 4.82678207 0.14867662 4.82678207 -2 2 C-5.80985105 0.73004965 -9.40609619 0.81585211 -13.375 0.8125 C-14.13039063 0.80025391 -14.88578125 0.78800781 -15.6640625 0.77539062 C-20.83908563 0.76181976 -24.91076779 0.95182258 -28.7890625 4.75390625 C-30.33809275 7.62710752 -30.39961521 9.68418963 -30.375 12.9375 C-30.38273437 13.95714844 -30.39046875 14.97679687 -30.3984375 16.02734375 C-29.9374663 19.46655046 -29.1592549 21.28914505 -27 24 C-23.10248319 25.97580947 -19.72242134 26.29527613 -15.38671875 26.4140625 C-14.13955078 26.45273437 -12.89238281 26.49140625 -11.60742188 26.53125 C-10.31384766 26.5621875 -9.02027344 26.593125 -7.6875 26.625 C-6.37458984 26.66367187 -5.06167969 26.70234375 -3.70898438 26.7421875 C-0.47279563 26.83633117 2.76338935 26.92196352 6 27 C6 27.66 6 28.32 6 29 C1.68763079 29.08789715 -2.6245045 29.1406923 -6.9375 29.1875 C-8.14986328 29.21263672 -9.36222656 29.23777344 -10.61132812 29.26367188 C-24.16713166 29.37388166 -24.16713166 29.37388166 -30 26 C-33.84638743 21.3899774 -34.66987918 16.28875283 -34.37109375 10.39453125 C-33.63827041 5.66589223 -32.10686602 2.5919593 -28.2578125 -0.31640625 C-19.80302381 -4.89475409 -8.18810448 -4.97846124 0 0 Z " fill="#D8D8D8" transform="translate(437,280)"/>
<path d="M0 0 C3.63 0 7.26 0 11 0 C11 3.3 11 6.6 11 10 C14.96 10 18.92 10 23 10 C23 11.98 23 13.96 23 16 C15.41 16 7.82 16 0 16 C0 10.72 0 5.44 0 0 Z " fill="#0C0C0C" transform="translate(126,166)"/>
<path d="M0 0 C1.27746094 -0.00257813 2.55492187 -0.00515625 3.87109375 -0.0078125 C7.2017337 0.11202005 10.29614456 0.48889369 13.5625 1.125 C11.10255981 3.58494019 10.33592166 3.39316413 6.94921875 3.46875 C6.03076172 3.49839844 5.11230469 3.52804687 4.16601562 3.55859375 C3.20373047 3.58050781 2.24144531 3.60242188 1.25 3.625 C-7.93563591 3.71114903 -7.93563591 3.71114903 -16.21875 7.28515625 C-18.13968533 10.18502977 -17.95039239 13.20080807 -17.9375 16.5625 C-17.9684375 17.88121094 -17.999375 19.19992187 -18.03125 20.55859375 C-17.76558117 24.24570085 -17.76558117 24.24570085 -15.09375 26.53515625 C-10.65831691 29.18989341 -6.94332266 29.25931928 -1.92578125 29.22265625 C-0.83344429 29.22053383 -0.83344429 29.22053383 0.28096008 29.21836853 C2.60401539 29.21277659 4.92697388 29.20022562 7.25 29.1875 C8.82617048 29.18248396 10.40234248 29.17792123 11.97851562 29.17382812 C15.83988098 29.1628098 19.70117408 29.14555074 23.5625 29.125 C24.0575 31.105 24.0575 31.105 24.5625 33.125 C24.2325 32.465 23.9025 31.805 23.5625 31.125 C21.9846875 31.36283203 21.9846875 31.36283203 20.375 31.60546875 C14.44959871 32.33962388 8.52653027 32.38678546 2.5625 32.4375 C1.42554688 32.46650391 0.28859375 32.49550781 -0.8828125 32.52539062 C-7.51923388 32.57543325 -13.05375984 32.3290499 -18.4375 28.125 C-22.13109262 23.67954959 -21.8824614 19.56327251 -21.71875 14.00390625 C-21.36244541 10.35673289 -20.64465972 8.06787963 -18.4375 5.125 C-12.45049985 0.30936945 -7.50375474 -0.0151133 0 0 Z " fill="#DEDEDE" transform="translate(329.4375,276.875)"/>
<path d="M0 0 C13.2 0 26.4 0 40 0 C40 1.65 40 3.3 40 5 C26.8 5 13.6 5 0 5 C0 3.35 0 1.7 0 0 Z " fill="#000000" transform="translate(247,309)"/>
<path d="M0 0 C2.97 0 5.94 0 9 0 C8.67 5.28 8.34 10.56 8 16 C3.05 16 -1.9 16 -7 16 C-7 14.02 -7 12.04 -7 10 C-5.35 10 -3.7 10 -2 10 C-1.34 6.7 -0.68 3.4 0 0 Z " fill="#0B0B0B" transform="translate(116,166)"/>
<path d="M0 0 C9.9 0 19.8 0 30 0 C30 1.98 30 3.96 30 6 C19.77 6 9.54 6 -1 6 C-0.67 4.02 -0.34 2.04 0 0 Z " fill="#010101" transform="translate(320,176)"/>
<path d="M0 0 C1.23556641 0.01740234 1.23556641 0.01740234 2.49609375 0.03515625 C3.32238281 0.04417969 4.14867188 0.05320313 5 0.0625 C5.63808594 0.07410156 6.27617188 0.08570313 6.93359375 0.09765625 C6.93359375 1.41765625 6.93359375 2.73765625 6.93359375 4.09765625 C9.90359375 4.09765625 12.87359375 4.09765625 15.93359375 4.09765625 C15.93359375 5.08765625 15.93359375 6.07765625 15.93359375 7.09765625 C16.42859375 7.48953125 16.92359375 7.88140625 17.43359375 8.28515625 C19.47683876 10.75407731 19.40808117 12.96844775 19.29296875 16.09375 C18.72771854 19.24563433 17.22058501 20.94135021 14.93359375 23.09765625 C11.65510474 24.19048592 9.21919059 24.22696045 5.76953125 24.23046875 C3.96355469 24.23240234 3.96355469 24.23240234 2.12109375 24.234375 C0.23390625 24.22857422 0.23390625 24.22857422 -1.69140625 24.22265625 C-3.59019531 24.22845703 -3.59019531 24.22845703 -5.52734375 24.234375 C-6.72875 24.23308594 -7.93015625 24.23179687 -9.16796875 24.23046875 C-10.27479004 24.22934082 -11.38161133 24.22821289 -12.52197266 24.22705078 C-15.06640625 24.09765625 -15.06640625 24.09765625 -16.06640625 23.09765625 C-16.13846136 21.41156659 -16.15026693 19.72264966 -16.12890625 18.03515625 C-16.11988281 17.11605469 -16.11085937 16.19695312 -16.1015625 15.25 C-16.08996094 14.53972656 -16.07835937 13.82945312 -16.06640625 13.09765625 C-15.73640625 13.09765625 -15.40640625 13.09765625 -15.06640625 13.09765625 C-15.06640625 16.06765625 -15.06640625 19.03765625 -15.06640625 22.09765625 C-10.81587361 21.98777489 -6.5662259 21.85714421 -2.31640625 21.72265625 C-0.5065625 21.67625 -0.5065625 21.67625 1.33984375 21.62890625 C2.5 21.59023437 3.66015625 21.5515625 4.85546875 21.51171875 C6.45793457 21.4645874 6.45793457 21.4645874 8.09277344 21.41650391 C10.89205432 21.10231855 12.58948024 20.62888072 14.93359375 19.09765625 C16.33294388 16.29895598 16.1862478 14.19266833 15.93359375 11.09765625 C13.91600768 8.12437152 11.30926369 7.12503406 7.93359375 6.09765625 C5.59456198 5.88685963 3.26892412 5.7235004 0.921875 5.63671875 C-1.06640625 5.09765625 -1.06640625 5.09765625 -2.3359375 3.05859375 C-2.57699219 2.41148437 -2.81804687 1.764375 -3.06640625 1.09765625 C-2.06640625 0.09765625 -2.06640625 0.09765625 0 0 Z " fill="#EAEAEA" transform="translate(78.06640625,187.90234375)"/>
<path d="M0 0 C0.33 0 0.66 0 1 0 C1 8.91 1 17.82 1 27 C8.26 27 15.52 27 23 27 C23 28.98 23 30.96 23 33 C22.67 32.01 22.34 31.02 22 30 C8.8 30 -4.4 30 -18 30 C-18 27.69 -18 25.38 -18 23 C-17.67 24.32 -17.34 25.64 -17 27 C-12.05 27 -7.1 27 -2 27 C-2.02320313 25.21851563 -2.04640625 23.43703125 -2.0703125 21.6015625 C-2.08906667 19.27604584 -2.10726724 16.95052467 -2.125 14.625 C-2.14175781 13.449375 -2.15851563 12.27375 -2.17578125 11.0625 C-2.18222656 9.94101562 -2.18867188 8.81953125 -2.1953125 7.6640625 C-2.20578613 6.62717285 -2.21625977 5.5902832 -2.22705078 4.52197266 C-2 2 -2 2 0 0 Z " fill="#A4A4A4" transform="translate(265,279)"/>
<path d="M0 0 C10.89 0 21.78 0 33 0 C33 1.65 33 3.3 33 5 C22.11 5 11.22 5 0 5 C0 3.35 0 1.7 0 0 Z " fill="#000000" transform="translate(209,309)"/>
<path d="M0 0 C10.56 0 21.12 0 32 0 C32 1.65 32 3.3 32 5 C21.11 5 10.22 5 -1 5 C-0.67 3.35 -0.34 1.7 0 0 Z " fill="#010101" transform="translate(357,309)"/>
<path d="M0 0 C8.58 0 17.16 0 26 0 C26 1.98 26 3.96 26 6 C17.42 6 8.84 6 0 6 C0 4.02 0 2.04 0 0 Z " fill="#141414" transform="translate(213,263)"/>
<path d="M0 0 C8.25 0 16.5 0 25 0 C25 1.98 25 3.96 25 6 C16.42 6 7.84 6 -1 6 C-0.67 4.02 -0.34 2.04 0 0 Z " fill="#1B1B1B" transform="translate(215,255)"/>
<path d="M0 0 C0 0.66 0 1.32 0 2 C-2.01822917 2.42317708 -4.03645833 2.84635417 -6.0546875 3.26953125 C-8.37046549 3.92308838 -8.37046549 3.92308838 -10 7 C-10.39452985 10.32719824 -10.39452985 10.32719824 -10.375 14 C-10.40335938 15.2375 -10.43171875 16.475 -10.4609375 17.75 C-10.28385604 20.97942774 -10.28385604 20.97942774 -8.4609375 22.92578125 C-5.05719984 24.41153975 -1.88738445 24.32158128 1.75 24.1875 C2.44738281 24.17396484 3.14476562 24.16042969 3.86328125 24.14648438 C5.57585541 24.1112945 7.28802941 24.05749155 9 24 C9.33 24.66 9.66 25.32 10 26 C4.02494762 27.35999327 -4.32748703 29.00047454 -9.921875 25.953125 C-13.58236598 22.29263402 -14.19446803 19.24461583 -14.3125 14.25 C-14.2558837 8.99726512 -13.79603163 5.8959272 -10 2 C-6.4234713 -0.30984145 -4.08711897 -1.72916572 0 0 Z " fill="#E6E6E6" transform="translate(246,184)"/>
<path d="M0 0 C1.90845703 0.04060547 1.90845703 0.04060547 3.85546875 0.08203125 C5.31919922 0.13423828 5.31919922 0.13423828 6.8125 0.1875 C6.8125 2.4975 6.8125 4.8075 6.8125 7.1875 C0.2125 7.5175 -6.3875 7.8475 -13.1875 8.1875 C-8.14056859 -0.22405235 -8.14056859 -0.22405235 0 0 Z " fill="#0B0B0B" transform="translate(289.1875,271.8125)"/>
<path d="M0 0 C1.37478516 0.01740234 1.37478516 0.01740234 2.77734375 0.03515625 C3.69644531 0.04417969 4.61554688 0.05320313 5.5625 0.0625 C6.27277344 0.07410156 6.98304688 0.08570313 7.71484375 0.09765625 C7.74172526 1.74340191 7.76118498 3.38927038 7.77734375 5.03515625 C7.78894531 5.95167969 7.80054688 6.86820313 7.8125 7.8125 C7.71484375 10.09765625 7.71484375 10.09765625 6.71484375 11.09765625 C-0.39476839 11.5563409 -0.39476839 11.5563409 -3.34765625 10.03515625 C-4.8518368 6.92651644 -4.01281061 4.37210087 -3.28515625 1.09765625 C-2.28515625 0.09765625 -2.28515625 0.09765625 0 0 Z " fill="#E8E8E8" transform="translate(249.28515625,191.90234375)"/>
<path d="M0 0 C0.33 0 0.66 0 1 0 C1 8.91 1 17.82 1 27 C6.28 27 11.56 27 17 27 C16.67 27.99 16.34 28.98 16 30 C10.06 30 4.12 30 -2 30 C-2.04588484 26.04880578 -2.08571688 22.09828934 -2.10986328 18.14697266 C-2.12488107 16.1408864 -2.15028981 14.13488676 -2.17578125 12.12890625 C-2.18544922 10.24365234 -2.18544922 10.24365234 -2.1953125 8.3203125 C-2.20578613 7.15773926 -2.21625977 5.99516602 -2.22705078 4.79736328 C-2 2 -2 2 0 0 Z " fill="#B3B3B3" transform="translate(202,182)"/>
<path d="M0 0 C1.27746094 -0.00257813 2.55492187 -0.00515625 3.87109375 -0.0078125 C7.2017337 0.11202005 10.29614456 0.48889369 13.5625 1.125 C11.10255981 3.58494019 10.33592166 3.39316413 6.94921875 3.46875 C6.03076172 3.49839844 5.11230469 3.52804687 4.16601562 3.55859375 C3.20373047 3.58050781 2.24144531 3.60242188 1.25 3.625 C-7.97147023 3.6579934 -7.97147023 3.6579934 -16.20703125 7.36328125 C-18.00903586 9.94329419 -17.95774856 12.20162319 -18.125 15.3125 C-18.19074219 16.39917969 -18.25648438 17.48585938 -18.32421875 18.60546875 C-18.36160156 19.43691406 -18.39898437 20.26835937 -18.4375 21.125 C-18.7675 21.125 -19.0975 21.125 -19.4375 21.125 C-19.581875 20.2175 -19.72625 19.31 -19.875 18.375 C-20.30519327 15.28893374 -20.30519327 15.28893374 -21.1875 13.125 C-21.60691532 9.76967746 -20.23161595 7.90298598 -18.4375 5.125 C-12.45049985 0.30936945 -7.50375474 -0.0151133 0 0 Z " fill="#C8C8C8" transform="translate(329.4375,276.875)"/>
<path d="M0 0 C0.82177734 -0.00128906 1.64355469 -0.00257813 2.49023438 -0.00390625 C3.34037109 -0.00003906 4.19050781 0.00382813 5.06640625 0.0078125 C5.91267578 0.00394531 6.75894531 0.00007812 7.63085938 -0.00390625 C8.86545898 -0.00197266 8.86545898 -0.00197266 10.125 0 C11.24152954 0.00169189 11.24152954 0.00169189 12.38061523 0.00341797 C14.62890625 0.1328125 14.62890625 0.1328125 19.62890625 1.1328125 C19.62890625 4.7628125 19.62890625 8.3928125 19.62890625 12.1328125 C19.29890625 12.1328125 18.96890625 12.1328125 18.62890625 12.1328125 C18.13390625 7.6778125 18.13390625 7.6778125 17.62890625 3.1328125 C13.89915019 3.2430516 10.17037042 3.37359663 6.44140625 3.5078125 C5.38630859 3.53875 4.33121094 3.5696875 3.24414062 3.6015625 C1.71176758 3.65957031 1.71176758 3.65957031 0.1484375 3.71875 C-1.25764771 3.76588135 -1.25764771 3.76588135 -2.69213867 3.81396484 C-5.60301733 4.16041591 -7.77286832 4.77457832 -10.37109375 6.1328125 C-11.74299202 9.16263556 -11.74299202 9.16263556 -12.37109375 12.1328125 C-13.03109375 11.4728125 -13.69109375 10.8128125 -14.37109375 10.1328125 C-14.27772439 6.58477698 -13.62397032 5.37885457 -11.05859375 2.8828125 C-7.35115519 0.46866646 -4.37159504 0.0066344 0 0 Z " fill="#D4D4D4" transform="translate(76.37109375,179.8671875)"/>
<path d="M0 0 C0.99 0.33 1.98 0.66 3 1 C-0.35394969 8.47859419 -3.22246685 13.62758418 -11 17 C-13.10644531 17.22705078 -13.10644531 17.22705078 -15.328125 17.1953125 C-16.12734375 17.18886719 -16.9265625 17.18242187 -17.75 17.17578125 C-18.575 17.15902344 -19.4 17.14226562 -20.25 17.125 C-21.09046875 17.11597656 -21.9309375 17.10695312 -22.796875 17.09765625 C-24.86470604 17.07415817 -26.93238995 17.03828908 -29 17 C-29 16.01 -29 15.02 -29 14 C-27.68644531 13.95101562 -26.37289063 13.90203125 -25.01953125 13.8515625 C-23.28383405 13.77650532 -21.54815797 13.70095877 -19.8125 13.625 C-18.94818359 13.5940625 -18.08386719 13.563125 -17.19335938 13.53125 C-10.86116914 13.26730891 -10.86116914 13.26730891 -5 11 C-3.78702351 8.7193293 -3.78702351 8.7193293 -3 6 C-2.01517978 3.99248185 -1.01847486 1.99065541 0 0 Z " fill="#CFCFCF" transform="translate(326,212)"/>
<path d="M0 0 C0.77666016 0.00515625 1.55332031 0.0103125 2.35351562 0.015625 C3.15595703 0.03625 3.95839844 0.056875 4.78515625 0.078125 C5.58373047 0.08328125 6.38230469 0.0884375 7.20507812 0.09375 C11.31950558 0.14829088 14.75061391 0.50871653 18.84765625 1.328125 C18.84765625 6.938125 18.84765625 12.548125 18.84765625 18.328125 C17.85765625 18.328125 16.86765625 18.328125 15.84765625 18.328125 C15.84765625 13.378125 15.84765625 8.428125 15.84765625 3.328125 C7.92765625 3.328125 0.00765625 3.328125 -8.15234375 3.328125 C-3.64999227 -0.04863861 -3.64999227 -0.04863861 0 0 Z " fill="#B8B8B8" transform="translate(176.15234375,276.671875)"/>
<path d="M0 0 C0.33 0 0.66 0 1 0 C2.10488965 14.41456036 1.8168499 28.57268972 1 43 C0.67 43 0.34 43 0 43 C0 34.75 0 26.5 0 18 C-7.92 17.67 -15.84 17.34 -24 17 C-22 15 -22 15 -19.75341797 14.77294922 C-18.84221191 14.78342285 -17.93100586 14.79389648 -16.9921875 14.8046875 C-16.00605469 14.81113281 -15.01992187 14.81757813 -14.00390625 14.82421875 C-12.45509766 14.84935547 -12.45509766 14.84935547 -10.875 14.875 C-9.83472656 14.88402344 -8.79445313 14.89304688 -7.72265625 14.90234375 C-5.14834003 14.92596133 -2.57414162 14.96183316 0 15 C0 10.05 0 5.1 0 0 Z " fill="#ECECEC" transform="translate(268,168)"/>
<path d="M0 0 C0.61875 0.86625 0.61875 0.86625 1.25 1.75 C5.21495113 6.84779431 7.76323902 8.54874797 14.25 9.75 C15.51328125 9.99234375 16.7765625 10.2346875 18.078125 10.484375 C19.52445313 10.73960937 19.52445313 10.73960937 21 11 C21.33 12.32 21.66 13.64 22 15 C18.78548731 16.60725635 15.56387464 16.05748185 12 16 C11.67 14.35 11.34 12.7 11 11 C10.113125 11.144375 9.22625 11.28875 8.3125 11.4375 C5 11 5 11 3.48828125 9.58203125 C0.85362299 6.0414733 0 4.5888714 0 0 Z " fill="#E9E9E9" transform="translate(62,190)"/>
<path d="M0 0 C2.37570543 -0.0816082 4.74855841 -0.14077222 7.125 -0.1875 C7.79015625 -0.21263672 8.4553125 -0.23777344 9.140625 -0.26367188 C14.77618234 -0.34654772 18.28590286 1.15077239 22.86328125 4.26953125 C24.65804919 7.00177248 24.28289035 9.47602503 24.1875 12.6875 C24.16042969 13.86699219 24.13335937 15.04648437 24.10546875 16.26171875 C24.07066406 17.16535156 24.03585937 18.06898438 24 19 C26.64 19 29.28 19 32 19 C32 19.33 32 19.66 32 20 C29.03 20 26.06 20 23 20 C22.87882812 19.16855469 22.75765625 18.33710938 22.6328125 17.48046875 C22.46523438 16.39378906 22.29765625 15.30710937 22.125 14.1875 C21.88136719 12.56908203 21.88136719 12.56908203 21.6328125 10.91796875 C21.14867662 7.82678207 21.14867662 7.82678207 19 5 C15.43913342 3.81304447 12.02668976 3.64904582 8.3125 3.4375 C7.61060547 3.39431641 6.90871094 3.35113281 6.18554688 3.30664062 C4.45724794 3.2008264 2.7286489 3.09993419 1 3 C0.67 2.01 0.34 1.02 0 0 Z " fill="#D9D9D9" transform="translate(416,277)"/>
<path d="M0 0 C0.33 0 0.66 0 1 0 C1.02505615 0.62044189 1.0501123 1.24088379 1.07592773 1.88012695 C1.19196721 4.69112397 1.31465759 7.50179241 1.4375 10.3125 C1.47681641 11.28896484 1.51613281 12.26542969 1.55664062 13.27148438 C1.59853516 14.20927734 1.64042969 15.14707031 1.68359375 16.11328125 C1.72025146 16.97735596 1.75690918 17.84143066 1.79467773 18.73168945 C1.92747354 21.1647826 1.92747354 21.1647826 3 24 C3.83978394 24.03758423 3.83978394 24.03758423 4.6965332 24.07592773 C7.23541305 24.19203745 9.77393553 24.3146958 12.3125 24.4375 C13.19357422 24.47681641 14.07464844 24.51613281 14.98242188 24.55664062 C16.25375977 24.61948242 16.25375977 24.61948242 17.55078125 24.68359375 C18.33106689 24.72025146 19.11135254 24.75690918 19.9152832 24.79467773 C22 25 22 25 25 26 C24.67 26.99 24.34 27.98 24 29 C24 28.34 24 27.68 24 27 C23.12263184 27.02356567 23.12263184 27.02356567 22.22753906 27.04760742 C19.56845836 27.11010267 16.90953236 27.14903569 14.25 27.1875 C12.86941406 27.22520508 12.86941406 27.22520508 11.4609375 27.26367188 C10.57148438 27.27333984 9.68203125 27.28300781 8.765625 27.29296875 C7.94868164 27.3086792 7.13173828 27.32438965 6.29003906 27.34057617 C3.41879636 26.913563 2.0828374 25.99726121 0 24 C-1.97341086 16.25815738 -0.62199959 7.88504091 0 0 Z " fill="#E5E5E5" transform="translate(125,184)"/>
<path d="M0 0 C0.99 0.33 1.98 0.66 3 1 C3.02187378 1.83978394 3.02187378 1.83978394 3.04418945 2.6965332 C3.11871352 5.23588137 3.21535581 7.77392078 3.3125 10.3125 C3.33505859 11.19357422 3.35761719 12.07464844 3.38085938 12.98242188 C3.41630859 13.82998047 3.45175781 14.67753906 3.48828125 15.55078125 C3.51446533 16.33106689 3.54064941 17.11135254 3.56762695 17.9152832 C4.09629451 20.46429069 5.11851308 21.27371307 7 23 C7 23.66 7 24.32 7 25 C3.34683329 23.75023244 2.21934164 23.32901247 0 20 C-0.22705078 17.82348633 -0.22705078 17.82348633 -0.1953125 15.33203125 C-0.18564453 13.99301758 -0.18564453 13.99301758 -0.17578125 12.62695312 C-0.15902344 11.69818359 -0.14226562 10.76941406 -0.125 9.8125 C-0.11597656 8.87212891 -0.10695312 7.93175781 -0.09765625 6.96289062 C-0.07409056 4.64167032 -0.04119116 2.32096356 0 0 Z " fill="#C8C8C8" transform="translate(166,186)"/>
<path d="M0 0 C0 0.66 0 1.32 0 2 C-2.01822917 2.42317708 -4.03645833 2.84635417 -6.0546875 3.26953125 C-8.37046549 3.92308838 -8.37046549 3.92308838 -10 7 C-10.33074186 9.54545633 -10.44034179 12.06160277 -10.55859375 14.625 C-11.06889858 17.37071092 -11.86522651 18.26941029 -14 20 C-14.61986755 9.3589404 -14.61986755 9.3589404 -12.375 4.4375 C-8.80558192 0.77414986 -5.14840715 -2.17817225 0 0 Z " fill="#D0D0D0" transform="translate(246,184)"/>
<path d="M0 0 C1.70512741 2.55769112 2.68063145 4.53999311 3.7265625 7.37890625 C4.0359375 8.21744141 4.3453125 9.05597656 4.6640625 9.91992188 C4.98117187 10.79197266 5.29828125 11.66402344 5.625 12.5625 C5.94984375 13.43841797 6.2746875 14.31433594 6.609375 15.21679688 C9 21.74079241 9 21.74079241 9 24 C8.01 24 7.02 24 6 24 C4.79497901 20.75622826 3.61411218 17.50417311 2.4375 14.25 C2.09525391 13.32960937 1.75300781 12.40921875 1.40039062 11.4609375 C1.08134766 10.57148438 0.76230469 9.68203125 0.43359375 8.765625 C-0.01415405 7.54020996 -0.01415405 7.54020996 -0.47094727 6.29003906 C-1.04922939 3.78690737 -0.83176958 2.40128262 0 0 Z " fill="#DEDEDE" transform="translate(302,183)"/>
<path d="M0 0 C1.23556641 0.01740234 1.23556641 0.01740234 2.49609375 0.03515625 C3.32238281 0.04417969 4.14867187 0.05320312 5 0.0625 C5.63808594 0.07410156 6.27617187 0.08570313 6.93359375 0.09765625 C7.26359375 1.74765625 7.59359375 3.39765625 7.93359375 5.09765625 C3.97359375 5.09765625 0.01359375 5.09765625 -4.06640625 5.09765625 C-2.82537325 0.13352426 -2.82537325 0.13352426 0 0 Z " fill="#EBEBEB" transform="translate(420.06640625,285.90234375)"/>
<path d="M0 0 C1.46856445 0.09861328 1.46856445 0.09861328 2.96679688 0.19921875 C5.37573332 0.36373148 7.7814756 0.54788251 10.1875 0.75 C10.1875 1.08 10.1875 1.41 10.1875 1.75 C8.94613281 1.79898438 7.70476562 1.84796875 6.42578125 1.8984375 C4.78383306 1.97349799 3.14190703 2.04904439 1.5 2.125 C0.68337891 2.1559375 -0.13324219 2.186875 -0.97460938 2.21875 C-7.13406645 2.49587383 -7.13406645 2.49587383 -12.8125 4.75 C-14.18439827 7.77982306 -14.18439827 7.77982306 -14.8125 10.75 C-15.4725 10.09 -16.1325 9.43 -16.8125 8.75 C-16.72667432 5.48862427 -16.06668453 4.04426341 -13.9296875 1.5703125 C-9.28589889 -1.14147383 -5.23610658 -0.44308222 0 0 Z " fill="#BBBBBB" transform="translate(78.8125,181.25)"/>
<path d="M0 0 C0.74507813 0.00451172 1.49015625 0.00902344 2.2578125 0.01367188 C4.0885764 0.02540754 5.91929873 0.0433415 7.75 0.0625 C7.75 0.3925 7.75 0.7225 7.75 1.0625 C6.89277344 1.09988281 6.03554688 1.13726562 5.15234375 1.17578125 C-3.82276553 1.69182474 -9.90784842 2.25055942 -16.25 9.0625 C-16.91 9.0625 -17.57 9.0625 -18.25 9.0625 C-16.98317448 5.15645463 -15.81716435 3.16083197 -12.25 1.0625 C-8.19034937 -0.16640975 -4.20362809 -0.04827488 0 0 Z " fill="#E5E5E5" transform="translate(422.25,277.9375)"/>
<path d="M0 0 C0.99 0.33 1.98 0.66 3 1 C1.35 6.28 -0.3 11.56 -2 17 C-2.99 16.67 -3.98 16.34 -5 16 C-4.54548816 14.26982492 -4.08621143 12.54090123 -3.625 10.8125 C-3.36976563 9.84957031 -3.11453125 8.88664063 -2.8515625 7.89453125 C-2.05233704 5.17789793 -1.0968638 2.60862825 0 0 Z " fill="#DADADA" transform="translate(335,186)"/>
<path d="M0 0 C2.39614126 -0.05425226 4.79103853 -0.09379027 7.1875 -0.125 C8.19780273 -0.15013672 8.19780273 -0.15013672 9.22851562 -0.17578125 C13.28807807 -0.21538674 16.34998815 0.19979998 20 2 C16.21332311 4.55698285 12.5877666 4.03499684 8.25 3.625 C7.55261719 3.56828125 6.85523438 3.5115625 6.13671875 3.453125 C4.42360688 3.31232128 2.71165389 3.15754028 1 3 C0.67 2.01 0.34 1.02 0 0 Z " fill="#AAAAAA" transform="translate(416,277)"/>
<path d="M0 0 C0.66 0 1.32 0 2 0 C1.67 4.62 1.34 9.24 1 14 C0.67 14 0.34 14 0 14 C-0.2165625 12.63875 -0.2165625 12.63875 -0.4375 11.25 C-0.89426761 8.15624001 -0.89426761 8.15624001 -1.6875 5.875 C-2.10583958 3.36496253 -1.29258822 2.12896883 0 0 Z " fill="#BDBDBD" transform="translate(310,284)"/>
<path d="M0 0 C0.66 0.99 1.32 1.98 2 3 C-0.17424117 5.50037734 -1.73045798 6.43628586 -5 7 C-5 6.01 -5 5.02 -5 4 C-4.360625 3.71125 -3.72125 3.4225 -3.0625 3.125 C-0.84793921 2.17176549 -0.84793921 2.17176549 0 0 Z " fill="#DEDEDE" transform="translate(94,205)"/>
</svg>
